<svg width="32" height="32" viewBox="0 0 40 40" fill="none" xmlns="http://www.w3.org/2000/svg">
    <!-- Book base -->
    <path d="M5 30C5 27.2386 7.23858 25 10 25H30C32.7614 25 35 27.2386 35 30V32C35 33.1046 34.1046 34 33 34H7C5.89543 34 5 33.1046 5 32V30Z" fill="#FF5733"/>
    <!-- Book pages -->
    <path d="M8 25V10C8 8.89543 8.89543 8 10 8H30C31.1046 8 32 8.89543 32 10V25" fill="white" stroke="#333333" stroke-width="1.5"/>
    <!-- Tree trunk -->
    <path d="M20 8V20" stroke="#5D4037" stroke-width="2" stroke-linecap="round"/>
    <!-- Tree branches -->
    <path d="M15 15L20 10L25 15" stroke="#5D4037" stroke-width="1.5" stroke-linecap="round"/>
    <path d="M13 19L20 12L27 19" stroke="#5D4037" stroke-width="1.5" stroke-linecap="round"/>
    <!-- Tree leaves -->
    <circle cx="20" cy="7" r="3" fill="#4CAF50"/>
    <circle cx="16" cy="10" r="2" fill="#4CAF50"/>
    <circle cx="24" cy="10" r="2" fill="#4CAF50"/>
    <circle cx="14" cy="14" r="2" fill="#4CAF50"/>
    <circle cx="26" cy="14" r="2" fill="#4CAF50"/>
    <circle cx="12" cy="18" r="2" fill="#4CAF50"/>
    <circle cx="28" cy="18" r="2" fill="#4CAF50"/>
</svg> 